<svg version="1.1" id="Layer_1" xmlns="http://www.w3.org/2000/svg" xmlns:xlink="http://www.w3.org/1999/xlink" x="0px" y="0px"
	 width="100%" viewBox="0 0 1080 200" enable-background="new 0 0 1080 1080" xml:space="preserve">

<path fill="#010101" opacity="1.000000" stroke="none"
	d="
M954.301086,130.980316
	C954.301086,133.454651 954.301086,135.429840 954.301086,137.790848
	C962.954163,137.790848 971.218506,137.790848 979.722473,137.790848
	C979.722473,145.586700 979.722473,153.000214 979.722473,160.983292
	C966.497925,160.983292 953.250244,161.047256 940.005676,160.874924
	C938.807556,160.859314 937.486389,159.467499 936.465149,158.466980
	C930.402283,152.526901 924.277039,146.638794 918.487305,140.439407
	C916.991699,138.837952 915.893494,136.194580 915.857544,134.009354
	C915.625671,119.901909 915.739014,105.788803 915.739014,91.347870
	C913.064697,91.218040 910.795532,91.107872 908.249207,90.984253
	C908.249207,83.446815 908.249207,75.885277 908.249207,67.996231
	C910.656189,67.996231 912.922668,67.996231 915.009827,67.996231
	C915.354370,67.396149 915.643127,67.122910 915.656372,66.836914
	C916.076172,57.764801 916.076233,57.776890 924.608887,54.887924
	C934.308289,51.603905 943.999268,48.295063 954.301086,44.790447
	C954.301086,73.695732 954.301086,102.088455 954.301086,130.980316
z"/>
<path fill="#020202" opacity="1.000000" stroke="none"
	d="
M200.423798,51.560715
	C205.180420,56.260971 209.847717,60.562325 214.102417,65.239029
	C215.595810,66.880539 216.874130,69.435699 216.895432,71.587082
	C217.101593,92.412666 217.085938,113.241669 216.913467,134.067871
	C216.896622,136.103104 215.907593,138.601196 214.513214,140.072723
	C208.443329,146.478424 202.116028,152.646149 195.731064,158.741959
	C194.549271,159.870255 192.683655,160.868042 191.110413,160.903793
	C182.125229,161.108017 173.133026,161.002975 163.841904,161.002975
	C163.841904,153.071609 163.841904,145.353394 163.841904,137.391083
	C168.581985,137.391083 173.046143,137.391083 177.875214,137.391083
	C177.875214,114.421173 177.875214,91.689758 177.875214,68.464767
	C173.433456,68.464767 168.860779,68.464767 163.917328,68.464767
	C163.917328,60.443447 163.917328,52.901417 163.917328,44.842140
	C173.348587,44.842140 182.832993,44.356083 192.211472,45.138977
	C195.017166,45.373188 197.526825,49.153717 200.423798,51.560715
z"/>
<path fill="#010101" opacity="1.000000" stroke="none"
	d="
M125.932968,46.423878
	C127.218750,45.692356 128.239197,44.900475 129.267975,44.889496
	C138.398804,44.792034 147.531143,44.832832 156.980408,44.832832
	C156.980408,52.614883 156.980408,60.153446 156.980408,68.056091
	C152.554123,68.056091 148.124619,68.056091 143.298523,68.056091
	C143.298523,91.235184 143.298523,114.058144 143.298523,137.250198
	C147.746964,137.250198 152.176102,137.250198 156.945160,137.250198
	C156.945160,145.175781 156.945160,152.752136 156.945160,160.975983
	C147.626999,160.975983 138.046326,161.045044 128.469757,160.878891
	C127.405518,160.860413 126.239975,159.629700 125.332756,158.744568
	C119.020348,152.585754 112.650856,146.477188 106.574135,140.091324
	C105.175163,138.621185 104.143211,136.142792 104.126106,134.118393
	C103.950287,113.315331 103.937126,92.509407 104.139854,71.706833
	C104.160851,69.551399 105.370934,66.936943 106.883507,65.349304
	C112.963593,58.967468 119.379623,52.905697 125.932968,46.423878
z"/>
<path fill="#010101" opacity="1.000000" stroke="none"
	d="
M691.056030,77.423798
	C696.830811,69.458076 704.104187,67.146530 713.590881,67.755554
	C727.352844,68.639053 741.215271,67.880348 755.030640,68.094063
	C757.055603,68.125389 759.505798,69.179901 760.991821,70.577179
	C767.294922,76.503677 773.365662,82.682846 779.378052,88.907982
	C780.531006,90.101685 781.729980,91.913704 781.740417,93.448433
	C781.891907,115.737534 781.844299,138.027969 781.844299,160.659698
	C769.255920,160.659698 756.878174,160.659698 744.036865,160.659698
	C744.036865,137.696945 744.036865,114.656166 744.036865,91.209679
	C725.520813,91.209679 707.458313,91.209679 688.020569,91.209679
	C689.033813,86.297478 689.918945,82.006531 691.056030,77.423798
z"/>
<path fill="#010101" opacity="1.000000" stroke="none"
	d="
M880.408264,101.993492
	C885.746155,107.339134 890.626831,112.589684 895.872803,117.445648
	C898.574402,119.946404 899.045471,122.683533 899.503479,126.141609
	C900.755920,135.597260 897.975952,142.962051 890.222595,148.499985
	C889.287415,149.167908 888.427917,150.033203 887.759277,150.968552
	C881.175537,160.178375 872.421448,163.480637 860.975891,160.186401
	C860.975891,149.412811 860.975891,138.031296 860.975891,125.917519
	C855.976746,125.917519 851.400085,125.917519 846.823486,125.917519
	C838.666504,125.917519 830.504028,126.080009 822.356384,125.804268
	C820.296448,125.734566 817.974426,124.659203 816.316956,123.354706
	C813.323730,120.998970 811.005920,117.754799 807.933655,115.535614
	C800.374756,110.075584 797.349243,103.125725 798.562073,93.785461
	C799.014526,90.300919 799.551147,87.568192 802.250610,85.136627
	C806.450500,81.353516 810.589355,77.435532 814.260315,73.151573
	C817.812378,69.006416 821.790833,67.097435 827.240173,67.920647
	C829.647949,68.284386 832.156433,67.981972 834.904053,67.981972
	C834.904053,78.921120 834.904053,89.519760 834.904053,100.881577
	C837.101379,100.881577 839.011658,100.881577 840.921936,100.881577
	C852.241821,100.881577 863.561951,100.845428 874.881348,100.919701
	C876.623413,100.931129 878.362183,101.450455 880.408264,101.993492
z"/>
<path fill="#000000" opacity="1.000000" stroke="none"
	d="
M461.046753,67.984291
	C471.996490,67.984291 482.452606,67.984291 493.071442,67.984291
	C493.071442,99.066612 493.071442,129.691010 493.071442,160.657730
	C480.436035,160.657730 467.725800,160.657730 454.850769,160.657730
	C454.850769,129.919876 454.850769,99.293587 454.850769,67.984291
	C456.709564,67.984291 458.631317,67.984291 461.046753,67.984291
z"/>
<path fill="#020202" opacity="1.000000" stroke="none"
	d="
M263.050598,71.727386
	C273.633575,101.511345 284.115631,130.901184 294.750885,160.720612
	C282.290253,160.720612 270.394012,160.720612 257.956665,160.720612
	C246.579132,130.282043 235.085068,99.531754 223.291885,67.981194
	C235.462280,67.981194 247.006668,68.088989 258.546295,67.902710
	C261.309601,67.858109 262.445007,68.951637 263.050598,71.727386
z"/>
<path fill="#020202" opacity="1.000000" stroke="none"
	d="
M376.028412,74.081543
	C376.028412,103.203453 376.028412,131.836151 376.028412,160.996216
	C371.181854,160.996216 366.573456,161.055435 361.969177,160.944229
	C361.090637,160.922989 360.181824,160.306030 359.374725,159.818619
	C358.823029,159.485413 358.421967,158.901627 357.956421,158.427048
	C351.081848,151.418930 341.653625,145.499207 338.068146,137.088730
	C334.638275,129.043228 338.087341,118.320091 337.060852,108.932625
	C335.675781,96.265854 338.921356,86.233994 349.575348,78.910469
	C350.385406,78.353653 351.145996,77.610939 351.686920,76.793991
	C357.516937,67.988716 365.913910,66.452545 376.028412,68.514244
	C376.028412,70.042549 376.028412,71.817436 376.028412,74.081543
z"/>
<path fill="#020202" opacity="1.000000" stroke="none"
	d="
M604.862122,146.991608
	C604.862122,151.793259 604.862122,156.096954 604.862122,160.999054
	C599.998962,160.999054 595.389465,161.152603 590.802490,160.899139
	C589.537598,160.829239 588.134521,159.755219 587.144531,158.785034
	C580.840637,152.607346 574.538513,146.420639 568.472473,140.012924
	C567.167053,138.633957 566.179138,136.347870 566.151306,134.463333
	C565.954834,121.140236 565.954346,107.811501 566.152283,94.488441
	C566.180298,92.606911 567.187500,90.336670 568.489685,88.947815
	C573.841309,83.239998 579.642212,77.951355 584.953064,72.208160
	C587.883301,69.039413 590.965210,67.420029 595.331970,67.915688
	C598.273987,68.249619 601.284668,67.979309 604.862122,67.979309
	C604.862122,94.322548 604.862122,120.408112 604.862122,146.991608
z"/>
<path fill="#050505" opacity="1.000000" stroke="none"
	d="
M400.991882,67.974907
	C411.222168,66.273781 417.709808,70.805687 424.908569,77.214142
	C435.412506,86.564896 440.515625,96.612839 438.271149,110.543739
	C437.594879,114.741173 438.166595,119.139671 438.166595,123.604385
	C419.460083,123.604385 401.176483,123.604385 382.500183,123.604385
	C382.500183,118.361626 382.500183,113.164589 382.500183,107.544838
	C388.955750,107.544838 395.395782,107.544838 402.227478,107.544838
	C402.227478,101.950081 402.227478,96.758675 402.227478,91.247849
	C395.693695,91.247849 389.231720,91.247849 382.439880,91.247849
	C382.439880,83.537827 382.439880,76.124626 382.439880,67.974907
	C388.328125,67.974907 394.411011,67.974907 400.991882,67.974907
z"/>
<path fill="#020202" opacity="1.000000" stroke="none"
	d="
M721.134399,122.997665
	C719.727356,123.753136 718.060669,124.464821 718.013672,125.270882
	C717.754150,129.725037 717.889526,134.202240 717.889526,139.171524
	C724.578613,139.171524 730.980530,139.171524 738.025208,139.171524
	C737.777710,143.089340 738.703247,147.217804 737.094299,149.710114
	C734.363037,153.940765 730.129272,157.246109 726.296753,160.683701
	C725.524353,161.376495 723.728271,160.978043 722.403076,160.994064
	C719.570984,161.028336 716.738098,161.004578 713.905579,161.004578
	C695.609558,161.004578 695.583801,161.028473 682.955933,147.419769
	C681.952332,146.338242 681.508301,144.650635 681.066467,143.166595
	C680.793030,142.248260 681.015686,141.182251 681.015564,140.182526
	C681.013367,121.542213 681.002502,121.530495 694.731812,108.848923
	C695.638184,108.011673 696.891113,107.014816 697.991699,107.004105
	C711.117065,106.876434 724.244019,106.921753 737.614502,106.921753
	C737.614502,112.373344 737.614502,117.442360 737.614502,122.997452
	C732.191345,122.997452 726.906982,122.997452 721.134399,122.997665
z"/>
<path fill="#020202" opacity="1.000000" stroke="none"
	d="
M320.048035,96.179504
	C313.030853,115.902122 306.112213,135.245712 298.769501,155.774994
	C292.893036,139.078430 287.413116,123.575813 282.024200,108.041641
	C281.675934,107.037643 281.764252,105.705894 282.095734,104.669304
	C285.985748,92.503662 289.961243,80.365356 293.939209,68.142944
	C305.955688,68.142944 317.737823,68.142944 330.060425,68.142944
	C326.706940,77.498413 323.426758,86.649452 320.048035,96.179504
z"/>
<path fill="#020202" opacity="1.000000" stroke="none"
	d="
M554.886841,101.017403
	C554.886841,105.458130 554.886841,109.407921 554.886841,113.848862
	C548.181396,113.848862 541.911926,113.848862 535.642456,113.848862
	C529.338867,113.848862 523.035278,113.848862 516.176025,113.848862
	C516.176025,106.327171 516.176025,98.956688 516.176025,91.127350
	C510.410309,91.127350 505.182709,91.127350 500.078217,91.127350
	C498.664398,84.767586 500.129761,80.285324 504.536163,75.594574
	C509.995850,69.782623 515.629211,67.904037 523.511658,67.622971
	C532.782532,67.292397 539.468872,69.615601 544.272583,77.485069
	C545.211243,79.022789 546.500854,80.428947 547.879028,81.601387
	C553.781799,86.623093 556.121765,92.895737 554.886841,101.017403
z"/>
<path fill="#010101" opacity="1.000000" stroke="none"
	d="
M619.962952,91.118423
	C616.831482,91.118423 614.186340,91.118423 611.249146,91.118423
	C611.249146,83.497650 611.249146,76.076324 611.249146,68.016144
	C621.646484,68.016144 632.228638,67.951508 642.807068,68.116516
	C643.860535,68.132950 645.006592,69.432426 645.915588,70.332481
	C651.950317,76.308060 658.101929,82.181946 663.825256,88.445541
	C665.493896,90.271683 666.320190,93.185692 666.757874,95.734100
	C667.251587,98.609009 666.871460,101.633995 666.871460,104.595497
	C666.039368,104.813461 665.581848,105.037369 665.123962,105.038086
	C652.978882,105.057182 640.833801,105.053261 628.224609,105.053261
	C628.224609,100.478500 628.224609,96.071487 628.224609,91.118423
	C625.329651,91.118423 622.889526,91.118423 619.962952,91.118423
z"/>
<path fill="#020202" opacity="1.000000" stroke="none"
	d="
M631.459900,127.695747
	C643.390808,127.695488 654.861389,127.695488 666.330627,127.695488
	C667.862061,133.883774 666.827454,138.636963 661.876709,142.888931
	C655.340271,148.502808 650.407837,157.159393 643.006653,160.257111
	C635.771606,163.285324 626.301025,160.973679 617.811707,161.002518
	C615.682129,161.009750 613.552551,161.003586 611.190674,161.003586
	C611.190674,153.750259 611.190674,146.820831 611.190674,139.487579
	C616.545776,139.487579 621.963928,139.487579 628.058472,139.487579
	C628.058472,136.179703 627.812317,133.223038 628.193542,130.349625
	C628.325073,129.358429 630.019287,128.574585 631.459900,127.695747
z"/>
<path fill="#060606" opacity="1.000000" stroke="none"
	d="
M842.976685,160.994492
	C834.331421,160.981201 826.176270,161.119186 818.035278,160.841171
	C816.201965,160.778564 813.970520,159.688217 812.695251,158.339920
	C808.817322,154.239746 805.550537,149.552658 801.597656,145.534958
	C798.341797,142.225708 798.195923,138.684280 799.017517,134.524841
	C811.746521,134.524841 824.300354,134.524841 837.252991,134.524841
	C837.252991,137.692078 837.252991,140.639786 837.252991,143.895966
	C843.108459,143.895966 848.569702,143.895966 854.308960,143.895966
	C854.308960,149.610886 854.308960,155.022110 854.308960,160.995331
	C850.665039,160.995331 847.068481,160.995331 842.976685,160.994492
z"/>
<path fill="#020202" opacity="1.000000" stroke="none"
	d="
M871.955566,67.980743
	C884.207458,65.228127 889.144470,74.792877 895.270630,81.368362
	C897.176208,83.413704 896.107544,88.230118 896.420898,92.025627
	C884.341187,92.025627 872.918396,92.025627 861.054810,92.025627
	C860.889832,89.889816 860.719177,87.681122 860.515442,85.043839
	C854.093018,85.043839 847.848511,85.043839 841.393494,85.043839
	C841.393494,79.328476 841.393494,74.055977 841.393494,67.980743
	C851.337891,67.980743 861.400818,67.980743 871.955566,67.980743
z"/>
<path fill="#050505" opacity="1.000000" stroke="none"
	d="
M411.958557,161.008835
	C401.844391,161.008835 392.223572,161.008835 382.357605,161.008835
	C382.357605,153.730103 382.357605,146.812241 382.357605,139.545441
	C399.410065,139.545441 416.453827,139.545441 433.504395,139.545441
	C435.799591,150.782898 427.445557,161.008789 415.947693,161.008820
	C414.782440,161.008820 413.617157,161.008835 411.958557,161.008835
z"/>
<path fill="#000000" opacity="1.000000" stroke="none"
	d="
M979.919189,91.081055
	C973.319214,91.110229 967.214417,91.110229 960.832703,91.110229
	C960.832703,83.421257 960.832703,76.042641 960.832703,68.322906
	C967.351746,68.322906 974.035583,68.322906 981.635742,68.322906
	C981.229065,75.891617 980.821716,83.471741 979.919189,91.081055
z"/>
</svg>