<svg version="1.0" xmlns="http://www.w3.org/2000/svg"
     width="1080.000000pt" height="1080.000000pt" viewBox="0 0 1080.000000 1080.000000"
     preserveAspectRatio="xMidYMid meet">

    <g transform="translate(0.000000,1080.000000) scale(0.100000,-0.100000)"
       fill="#FFFFFF" stroke="none">
        <path d="M5746 8919 c-20 -3 -42 -11 -48 -17 -7 -7 -9 -78 -6 -224 5 -196 8
-221 34 -313 l29 -100 0 -367 c0 -201 4 -370 8 -375 5 -4 192 -10 415 -13 436
-6 444 -7 463 -58 16 -40 15 -4232 0 -4261 -21 -38 -56 -52 -159 -62 -55 -5
-120 -16 -143 -25 -33 -11 -109 -17 -292 -23 -212 -7 -251 -11 -265 -25 -15
-15 -17 -74 -22 -634 -5 -594 -6 -618 -25 -650 -17 -29 -18 -34 -5 -42 17 -11
1725 -13 1781 -2 28 5 45 18 71 52 18 25 49 53 68 62 23 12 45 37 68 77 22 40
50 72 83 96 27 19 54 46 60 59 6 12 35 40 65 62 30 21 56 46 59 55 3 9 32 40
65 68 32 28 62 60 65 71 3 11 30 36 60 55 36 25 57 46 64 68 7 21 27 42 57 61
25 16 55 43 66 60 12 18 43 46 69 64 26 17 55 46 63 64 9 18 35 44 57 58 23
14 52 41 64 61 13 20 44 50 70 67 26 17 54 46 64 64 9 18 37 47 62 63 29 19
51 42 58 63 9 23 27 41 61 60 44 24 50 32 55 67 3 22 5 950 3 2062 l-3 2022
-42 43 c-50 52 -59 74 -72 179 -11 86 -33 125 -91 160 -15 9 -40 37 -55 62
-16 25 -44 54 -61 64 -18 10 -47 40 -66 68 -18 27 -45 56 -60 63 -15 7 -42 33
-60 58 -18 26 -50 55 -70 65 -22 11 -47 36 -62 62 -15 25 -40 50 -60 59 -19
10 -47 38 -66 67 -20 30 -44 54 -61 60 -18 6 -42 30 -64 66 -20 31 -47 61 -59
67 -13 5 -40 32 -61 59 -21 28 -52 56 -69 63 -19 8 -41 31 -56 57 -14 24 -45
63 -70 86 -25 24 -51 49 -58 57 -143 151 -163 166 -225 168 -164 4 -1720 2
-1751 -3z"/>
        <path d="M3458 8910 c-37 -7 -62 -29 -95 -82 -10 -16 -22 -28 -27 -28 -10 0
-123 -108 -254 -243 -42 -44 -98 -100 -121 -122 -45 -42 -97 -96 -131 -135
-19 -23 -47 -47 -62 -55 -15 -8 -29 -24 -33 -35 -4 -11 -18 -26 -33 -34 -40
-21 -66 -46 -96 -93 -14 -24 -31 -43 -37 -43 -7 0 -37 -26 -68 -58 -31 -32
-68 -65 -84 -75 -15 -10 -38 -34 -51 -55 -13 -21 -44 -53 -69 -72 -25 -19 -52
-46 -59 -59 -7 -13 -33 -37 -58 -52 -32 -20 -54 -45 -76 -86 -20 -37 -46 -68
-73 -86 l-41 -28 1 -2102 c1 -1156 4 -2112 7 -2125 4 -12 25 -33 47 -45 35
-20 41 -28 46 -67 11 -69 24 -94 69 -131 53 -43 68 -57 77 -73 5 -8 26 -22 48
-32 29 -14 46 -32 63 -64 16 -32 33 -50 62 -64 27 -12 49 -33 66 -62 17 -29
36 -46 58 -54 41 -13 62 -35 72 -74 4 -17 19 -35 36 -45 54 -29 80 -54 94 -88
8 -18 19 -33 25 -33 37 0 78 -34 97 -81 12 -27 27 -49 35 -49 21 0 66 -39 88
-74 10 -17 40 -42 66 -56 38 -20 51 -33 63 -67 10 -29 32 -55 68 -84 28 -24
59 -53 67 -66 9 -13 21 -23 27 -23 21 0 80 -52 89 -80 11 -30 73 -84 114 -100
30 -11 1676 -13 1740 -2 36 6 40 11 43 39 2 18 -6 50 -19 74 -31 62 -38 188
-35 674 2 341 6 436 19 504 9 47 16 85 14 86 -33 26 -70 30 -372 37 -341 7
-406 15 -485 59 -31 17 -46 33 -52 54 -12 46 -11 4181 1 4204 22 41 59 45 476
51 220 4 401 7 402 8 1 1 10 16 19 34 17 32 16 45 -5 193 -13 89 -14 322 -1
399 5 32 19 78 30 101 29 59 40 178 40 428 0 194 -1 208 -20 227 -20 20 -33
20 -897 19 -483 -1 -895 -5 -915 -9z"/>
    </g>
</svg>
